<svg width="191" height="71" viewBox="0 0 191 71" fill="none" xmlns="http://www.w3.org/2000/svg">
<path d="M3.2 2.8L2.98023e-08 2.32V0.32H7.44L20.76 19.84L23 24.08V2.8L19.52 2.32V0.32H28.96V2.32L25.76 2.8V30.04H22.6L9 10.08L5.92 4.8V27.68L9.72 28.08V30.04H2.98023e-08V28.08L3.2 27.64V2.8ZM41.5931 30.48C38.3665 30.48 35.8998 29.4267 34.1931 27.32C32.5131 25.2133 31.6731 22.4 31.6731 18.88C31.6731 16.56 32.1131 14.52 32.9931 12.76C33.8731 11 35.0998 9.64 36.6731 8.68C38.2731 7.72 40.0865 7.24 42.1131 7.24C44.5931 7.24 46.5131 7.93333 47.8731 9.32C49.2598 10.68 49.9931 12.64 50.0731 15.2C50.0731 16.8267 49.9798 18.0667 49.7931 18.92H36.0331C36.0865 21.56 36.6998 23.6933 37.8731 25.32C39.0465 26.92 40.7131 27.72 42.8731 27.72C43.9398 27.72 45.0465 27.5333 46.1931 27.16C47.3665 26.76 48.2731 26.2933 48.9131 25.76L49.6731 27.52C48.8998 28.32 47.7531 29.0133 46.2331 29.6C44.7131 30.1867 43.1665 30.48 41.5931 30.48ZM45.6731 16.8C45.7531 16.24 45.7931 15.6667 45.7931 15.08C45.7665 13.3467 45.3931 11.9867 44.6731 11C43.9798 9.98667 42.8731 9.48 41.3531 9.48C39.8065 9.48 38.5665 10.04 37.6331 11.16C36.7265 12.28 36.2065 14.16 36.0731 16.8H45.6731ZM61.4709 18.96L54.7109 10.2L52.4709 9.72V7.84H62.6309V9.72L59.8309 10.2L63.4709 15.36L64.5909 17.08L65.6709 15.36L69.4709 10.2L66.5509 9.72V7.84H74.9909V9.72L72.5909 10.2L65.9509 18.48L73.0309 27.76L75.3509 28.12V30.04H65.0709V28.12L67.7109 27.72L64.0709 22.32L62.8709 20.52L61.7909 22.28L57.9509 27.72L61.2709 28.12V30.04H51.9509V28.12L54.6309 27.72L61.4709 18.96ZM77.3 24.04C77.3 21.5333 78.5533 19.6933 81.06 18.52C83.5667 17.32 86.74 16.68 90.58 16.6V15.48C90.58 14.2267 90.4467 13.24 90.18 12.52C89.9133 11.8 89.4467 11.28 88.78 10.96C88.14 10.6133 87.22 10.44 86.02 10.44C84.66 10.44 83.4333 10.64 82.34 11.04C81.2733 11.4133 80.2067 11.88 79.14 12.44L78.14 10.36C78.4867 10.0667 79.1267 9.68 80.06 9.2C80.9933 8.72 82.0733 8.29333 83.3 7.92C84.5267 7.54667 85.7533 7.36 86.98 7.36C88.8733 7.36 90.3667 7.62667 91.46 8.16C92.58 8.66667 93.38 9.49333 93.86 10.64C94.34 11.7867 94.58 13.32 94.58 15.24V28.08H96.94V29.84C96.4067 29.9733 95.7267 30.1067 94.9 30.24C94.1 30.3733 93.3933 30.44 92.78 30.44C92.0333 30.44 91.5267 30.32 91.26 30.08C90.9933 29.8667 90.86 29.3733 90.86 28.6V27.28C90.06 28.08 89.0733 28.8133 87.9 29.48C86.7533 30.1467 85.4467 30.48 83.98 30.48C82.06 30.48 80.46 29.9333 79.18 28.84C77.9267 27.72 77.3 26.12 77.3 24.04ZM85.7 27.76C86.3933 27.76 87.1933 27.5467 88.1 27.12C89.0067 26.6933 89.8333 26.1867 90.58 25.6V18.72C87.6733 18.72 85.4733 19.1733 83.98 20.08C82.5133 20.96 81.78 22.12 81.78 23.56C81.78 25 82.1267 26.0667 82.82 26.76C83.54 27.4267 84.5 27.76 85.7 27.76ZM113.042 30.48C110.109 30.48 107.602 29.8533 105.522 28.6C103.469 27.32 101.909 25.5333 100.842 23.24C99.7752 20.9467 99.2419 18.2533 99.2419 15.16C99.2419 12.1733 99.8685 9.53333 101.122 7.24C102.375 4.94667 104.095 3.17333 106.282 1.92C108.469 0.64 110.922 -9.53674e-07 113.642 -9.53674e-07C115.695 -9.53674e-07 118.162 0.319999 121.042 0.959999L122.362 1.2L121.962 8.4H119.282L118.282 3.32C117.909 3 117.255 2.73333 116.322 2.52C115.415 2.28 114.295 2.16 112.962 2.16C111.255 2.16 109.735 2.65333 108.402 3.64C107.069 4.6 106.015 6.02667 105.242 7.92C104.495 9.81333 104.122 12.08 104.122 14.72C104.122 17.2267 104.455 19.5067 105.122 21.56C105.789 23.6133 106.802 25.2533 108.162 26.48C109.522 27.68 111.202 28.28 113.202 28.28C114.615 28.28 115.695 28.16 116.442 27.92C117.215 27.68 117.869 27.3333 118.402 26.88L120.082 22.96L122.602 23.28L121.642 28.96C121.082 28.9867 120.255 29.1733 119.162 29.52C118.202 29.8133 117.269 30.04 116.362 30.2C115.482 30.3867 114.375 30.48 113.042 30.48ZM125.855 18.88C125.855 16.48 126.348 14.4 127.335 12.64C128.321 10.88 129.615 9.54667 131.215 8.64C132.841 7.70667 134.575 7.24 136.415 7.24C139.775 7.24 142.295 8.30667 143.975 10.44C145.681 12.5733 146.535 15.3733 146.535 18.84C146.535 21.2667 146.041 23.36 145.055 25.12C144.068 26.88 142.761 28.2133 141.135 29.12C139.535 30.0267 137.815 30.48 135.975 30.48C132.615 30.48 130.081 29.4133 128.375 27.28C126.695 25.1467 125.855 22.3467 125.855 18.88ZM136.215 28.2C138.055 28.2 139.468 27.44 140.455 25.92C141.441 24.4 141.935 22.1467 141.935 19.16C141.935 16.2 141.481 13.8533 140.575 12.12C139.668 10.3867 138.215 9.52 136.215 9.52C134.375 9.52 132.948 10.28 131.935 11.8C130.948 13.32 130.455 15.5733 130.455 18.56C130.455 21.52 130.921 23.8667 131.855 25.6C132.788 27.3333 134.241 28.2 136.215 28.2ZM150.271 28.08L153.271 27.84V10.92L150.391 10.2V8.04L155.911 7.32H155.991L156.871 8.04V8.76L156.751 11.88H156.871C157.137 11.4267 157.617 10.84 158.311 10.12C159.004 9.4 159.897 8.74667 160.991 8.16C162.084 7.54667 163.271 7.24 164.551 7.24C165.084 7.24 165.524 7.30667 165.871 7.44V11.92C165.684 11.7867 165.377 11.6667 164.951 11.56C164.551 11.4267 164.097 11.36 163.591 11.36C161.377 11.36 159.324 12.04 157.431 13.4V27.8L162.511 28.12V30.04H150.271V28.08ZM190.151 18.16C190.151 20.4267 189.684 22.5067 188.751 24.4C187.818 26.2667 186.484 27.7467 184.751 28.84C183.018 29.9333 180.991 30.48 178.671 30.48C178.031 30.48 177.338 30.4267 176.591 30.32C175.844 30.2133 175.244 30.08 174.791 29.92L174.911 33.28V37.32L179.071 37.76V39.72H167.911V37.76L170.791 37.32V10.92L167.871 10.2V8.04L173.551 7.32H173.631L174.471 8.04V10.4C175.271 9.52 176.258 8.77333 177.431 8.16C178.631 7.54667 179.964 7.24 181.431 7.24C183.004 7.24 184.444 7.62667 185.751 8.4C187.084 9.17333 188.151 10.3733 188.951 12C189.751 13.6267 190.151 15.68 190.151 18.16ZM179.791 10.04C178.778 10.04 177.831 10.2533 176.951 10.68C176.071 11.1067 175.391 11.5733 174.911 12.08V27.16C175.098 27.48 175.564 27.7733 176.311 28.04C177.084 28.28 177.924 28.4 178.831 28.4C180.884 28.4 182.538 27.5867 183.791 25.96C185.071 24.3333 185.711 21.88 185.711 18.6C185.711 15.72 185.151 13.5733 184.031 12.16C182.938 10.7467 181.524 10.04 179.791 10.04Z" fill="#004272"/>
<path d="M9.6 70.48C8.21333 70.48 6.97333 70.36 5.88 70.12C4.78667 69.88 3.58667 69.56 2.28 69.16C1.48 68.8667 0.88 68.7067 0.48 68.68L0.8 61.44H3.36L4.04 66.64C4.49333 67.0667 5.22667 67.4533 6.24 67.8C7.28 68.12 8.41333 68.28 9.64 68.28C11.6667 68.28 13.2 67.8267 14.24 66.92C15.3067 66.0133 15.84 64.76 15.84 63.16C15.84 62.12 15.5467 61.2267 14.96 60.48C14.4 59.7333 13.64 59.0933 12.68 58.56C11.7467 58.0267 10.4533 57.4 8.8 56.68C7.30667 56.0133 6 55.3333 4.88 54.64C3.78667 53.9467 2.82667 53.0267 2 51.88C1.2 50.7067 0.8 49.3067 0.8 47.68C0.8 46.2133 1.18667 44.9067 1.96 43.76C2.76 42.5867 3.89333 41.6667 5.36 41C6.85333 40.3333 8.58667 40 10.56 40C11.7867 40 12.8667 40.0933 13.8 40.28C14.76 40.4667 15.84 40.72 17.04 41.04C17.5733 41.2267 18.0267 41.3467 18.4 41.4L18.16 48.12H15.72L14.92 43.2C14.6533 42.9333 14.0933 42.68 13.24 42.44C12.4133 42.2 11.5067 42.08 10.52 42.08C8.68 42.08 7.28 42.4667 6.32 43.24C5.38667 44.0133 4.92 45.1333 4.92 46.6C4.92 47.6667 5.2 48.56 5.76 49.28C6.34667 50 7.06667 50.6133 7.92 51.12C8.77333 51.6267 10.1333 52.32 12 53.2C13.7333 54.0267 15.1467 54.7733 16.24 55.44C17.3333 56.1067 18.2667 56.9867 19.04 58.08C19.84 59.1467 20.24 60.4267 20.24 61.92C20.24 63.3333 19.84 64.6933 19.04 66C18.2667 67.3067 17.0667 68.3867 15.44 69.24C13.84 70.0667 11.8933 70.48 9.6 70.48ZM23.55 58.88C23.55 56.48 24.0433 54.4 25.03 52.64C26.0167 50.88 27.31 49.5467 28.91 48.64C30.5367 47.7067 32.27 47.24 34.11 47.24C37.47 47.24 39.99 48.3067 41.67 50.44C43.3767 52.5733 44.23 55.3733 44.23 58.84C44.23 61.2667 43.7367 63.36 42.75 65.12C41.7633 66.88 40.4567 68.2133 38.83 69.12C37.23 70.0267 35.51 70.48 33.67 70.48C30.31 70.48 27.7767 69.4133 26.07 67.28C24.39 65.1467 23.55 62.3467 23.55 58.88ZM33.91 68.2C35.75 68.2 37.1633 67.44 38.15 65.92C39.1367 64.4 39.63 62.1467 39.63 59.16C39.63 56.2 39.1767 53.8533 38.27 52.12C37.3633 50.3867 35.91 49.52 33.91 49.52C32.07 49.52 30.6433 50.28 29.63 51.8C28.6433 53.32 28.15 55.5733 28.15 58.56C28.15 61.52 28.6167 63.8667 29.55 65.6C30.4833 67.3333 31.9367 68.2 33.91 68.2ZM50.8059 40.2L47.5659 39.76V38.04L54.0059 37.28H54.0859L54.9659 37.88V67.76L58.3659 68.08V70.04H47.5659V68.08L50.8059 67.72V40.2ZM79.4062 70.4C78.6596 70.4 78.0996 70.2533 77.7263 69.96C77.3796 69.6667 77.2063 69.1867 77.2063 68.52V67.16C76.3263 68.04 75.2196 68.8133 73.8863 69.48C72.5796 70.1467 71.2596 70.48 69.9263 70.48C67.4463 70.48 65.6863 69.8133 64.6463 68.48C63.6063 67.1467 63.0863 64.9467 63.0863 61.88V50.28L60.8463 49.64V47.88L66.4463 47.36H66.4863L67.2463 47.84V61.56C67.2463 63.1067 67.3529 64.32 67.5663 65.2C67.8063 66.0533 68.2063 66.6933 68.7663 67.12C69.3529 67.52 70.1929 67.72 71.2863 67.72C72.3529 67.72 73.3529 67.4933 74.2863 67.04C75.2196 66.5867 76.0329 66.0533 76.7263 65.44V50.28L73.8463 49.64V47.88L79.9263 47.36H79.9662L80.8863 47.84V68H83.2863L83.2463 69.8C82.4996 69.9867 81.8463 70.1333 81.2863 70.24C80.7529 70.3467 80.1263 70.4 79.4062 70.4ZM93.3197 70.44C91.7997 70.44 90.6664 70.0933 89.9197 69.4C89.173 68.7067 88.7997 67.52 88.7997 65.84V50.48H85.9197V48.68C86.053 48.6533 86.4264 48.56 87.0397 48.4C87.653 48.24 88.0664 48.0933 88.2797 47.96C88.7064 47.72 89.0397 47.24 89.2797 46.52C89.493 46.0133 89.7464 45.2 90.0397 44.08C90.333 42.96 90.5064 42.2933 90.5597 42.08H92.9197L92.9997 47.84H99.6797V50.48H92.9997V62.76C92.9997 64.28 93.0397 65.3467 93.1197 65.96C93.2264 66.5733 93.4264 66.9733 93.7197 67.16C94.0397 67.3467 94.573 67.44 95.3197 67.44C96.0397 67.44 96.8264 67.3467 97.6797 67.16C98.5597 66.9733 99.2397 66.7733 99.7197 66.56L100.32 68.36C99.6797 68.84 98.6397 69.3067 97.1997 69.76C95.7864 70.2133 94.493 70.44 93.3197 70.44ZM107.489 43.84C106.635 43.84 105.995 43.6 105.569 43.12C105.142 42.64 104.929 42.0267 104.929 41.28C104.929 40.4267 105.182 39.72 105.689 39.16C106.222 38.6 106.942 38.32 107.849 38.32C108.755 38.32 109.422 38.56 109.849 39.04C110.275 39.52 110.489 40.1333 110.489 40.88C110.489 41.7867 110.222 42.5067 109.689 43.04C109.182 43.5733 108.462 43.84 107.529 43.84H107.489ZM105.889 50.92L102.849 50.2V48.08L109.049 47.32H109.129L110.049 48.04V67.76L113.249 68.08V70.04H102.649V68.08L105.889 67.72V50.92ZM116.089 58.88C116.089 56.48 116.582 54.4 117.569 52.64C118.556 50.88 119.849 49.5467 121.449 48.64C123.076 47.7067 124.809 47.24 126.649 47.24C130.009 47.24 132.529 48.3067 134.209 50.44C135.916 52.5733 136.769 55.3733 136.769 58.84C136.769 61.2667 136.276 63.36 135.289 65.12C134.302 66.88 132.996 68.2133 131.369 69.12C129.769 70.0267 128.049 70.48 126.209 70.48C122.849 70.48 120.316 69.4133 118.609 67.28C116.929 65.1467 116.089 62.3467 116.089 58.88ZM126.449 68.2C128.289 68.2 129.702 67.44 130.689 65.92C131.676 64.4 132.169 62.1467 132.169 59.16C132.169 56.2 131.716 53.8533 130.809 52.12C129.902 50.3867 128.449 49.52 126.449 49.52C124.609 49.52 123.182 50.28 122.169 51.8C121.182 53.32 120.689 55.5733 120.689 58.56C120.689 61.52 121.156 63.8667 122.089 65.6C123.022 67.3333 124.476 68.2 126.449 68.2ZM142.825 50.92L139.945 50.2V48.04L145.665 47.32H145.785L146.625 48.04V49.72L146.585 50.68C147.545 49.8267 148.812 49.0533 150.385 48.36C151.958 47.6667 153.465 47.32 154.905 47.32C156.585 47.32 157.878 47.64 158.785 48.28C159.718 48.92 160.372 49.9067 160.745 51.24C161.118 52.5467 161.305 54.32 161.305 56.56V67.76L164.105 68.04V70.04H154.625V68.08L157.105 67.76V56.52C157.105 54.9467 156.998 53.72 156.785 52.84C156.572 51.9333 156.172 51.2667 155.585 50.84C154.998 50.3867 154.145 50.16 153.025 50.16C152.065 50.16 151.038 50.4 149.945 50.88C148.852 51.36 147.878 51.92 147.025 52.56V67.72L149.745 68.08V70.04H140.305V68.08L142.825 67.72V50.92ZM170.708 66.84C170.974 67.24 171.534 67.6 172.388 67.92C173.268 68.24 174.188 68.4 175.148 68.4C176.668 68.4 177.788 68.1067 178.508 67.52C179.228 66.9333 179.588 66.12 179.588 65.08C179.588 64.36 179.361 63.7333 178.908 63.2C178.454 62.6667 177.814 62.2 176.988 61.8C176.188 61.3733 175.028 60.8667 173.508 60.28C171.454 59.5067 169.948 58.5867 168.988 57.52C168.054 56.4267 167.588 55 167.588 53.24C167.588 52.0667 167.934 51.04 168.628 50.16C169.348 49.28 170.321 48.6 171.548 48.12C172.801 47.6133 174.188 47.36 175.708 47.36C176.934 47.36 178.001 47.4533 178.908 47.64C179.841 47.8267 180.588 48.0133 181.148 48.2C181.708 48.3867 182.081 48.5067 182.268 48.56V53.52H179.828L179.028 50.56C178.868 50.24 178.441 49.9733 177.748 49.76C177.054 49.52 176.281 49.4 175.428 49.4C174.228 49.4 173.254 49.6667 172.508 50.2C171.788 50.7333 171.428 51.4533 171.428 52.36C171.428 53.16 171.614 53.8267 171.988 54.36C172.388 54.8667 172.881 55.28 173.468 55.6C174.054 55.92 174.854 56.2933 175.868 56.72L176.668 57.04C178.161 57.6267 179.374 58.1867 180.308 58.72C181.241 59.2533 182.014 59.96 182.628 60.84C183.268 61.6933 183.588 62.7467 183.588 64C183.588 65.9733 182.814 67.5467 181.268 68.72C179.748 69.8933 177.654 70.48 174.988 70.48C173.681 70.48 172.308 70.3067 170.868 69.96C169.454 69.5867 168.294 69.2133 167.388 68.84V63.72H169.988L170.708 66.84Z" fill="#050505"/>
</svg>
